<svg xmlns="http://www.w3.org/2000/svg" width="35" height="34" viewBox="0 0 35 34">
  <g id="Group_7" data-name="Group 7" transform="translate(-878 -2693)">
    <g id="Vector_Smart_Object" data-name="Vector Smart Object" transform="translate(592.373 2626.681)">
      <path id="Path_9" data-name="Path 9" d="M303.126,100.319a17.007,17.007,0,1,0-17.5-17,17.255,17.255,0,0,0,17.5,17" fill="#3b3b3b"/>
      <path id="Path_10" data-name="Path 10" d="M298.9,80.44h1.809V78.733A4.453,4.453,0,0,1,301.3,76.1a3.252,3.252,0,0,1,2.808-1.279,11.7,11.7,0,0,1,3.243.316l-.452,2.6a6.3,6.3,0,0,0-1.458-.211c-.7,0-1.333.245-1.333.928V80.44h2.885l-.2,2.544H304.1v8.835h-3.391V82.984H298.9Z" fill="#fff"/>
    </g>
  </g>
</svg>
