<svg xmlns="http://www.w3.org/2000/svg" width="35" height="33.999" viewBox="0 0 35 33.999">
  <g id="Group_8" data-name="Group 8" transform="translate(-338.121 -66.32)">
    <path id="Path_11" data-name="Path 11" d="M355.622,100.319a17.007,17.007,0,1,0-17.5-17,17.255,17.255,0,0,0,17.5,17" fill="#3b3b3b"/>
    <path id="Path_12" data-name="Path 12" d="M352.727,90.933c-2.081,0-3.584-1.278-3.584-2.816,0-1.506,1.864-2.76,3.945-2.738a4.643,4.643,0,0,1,1.348.21c1.129.764,1.939,1.193,2.168,2.063a2.282,2.282,0,0,1,.067.543c0,1.537-1.019,2.738-3.944,2.738m.546-9.012c-1.4-.04-2.723-1.517-2.964-3.3s.7-3.145,2.092-3.1,2.724,1.469,2.964,3.251-.7,3.194-2.092,3.152m2.9,2.639c-.49-.337-1.426-1.156-1.426-1.638,0-.565.166-.842,1.04-1.505a3.511,3.511,0,0,0,1.53-2.75,3.122,3.122,0,0,0-1.746-3.042h1.718l1.212-.851h-5.419c-2.429,0-4.717,1.788-4.717,3.858a3.867,3.867,0,0,0,4.128,3.826c.173,0,.34,0,.5-.015a2.1,2.1,0,0,0-.276.983,2.027,2.027,0,0,0,.738,1.455c-.312,0-.612.009-.939.009-3.01,0-5.326,1.861-5.326,3.792,0,1.9,2.539,3.091,5.548,3.091,3.431,0,5.327-1.89,5.327-3.792a3.644,3.644,0,0,0-1.9-3.421m7.886-2.483h-2.11V80.028h-1.7v2.049h-2.109v1.649h2.109v2.05h1.7v-2.05h2.11Z" fill="#fff"/>
  </g>
</svg>
