<svg xmlns="http://www.w3.org/2000/svg" width="35" height="33.999" viewBox="0 0 35 33.999">
  <g id="Group_3" data-name="Group 3" transform="translate(-495.602 -66.32)">
    <path id="Path_13" data-name="Path 13" d="M513.1,100.319a17.007,17.007,0,1,0-17.5-17,17.256,17.256,0,0,0,17.5,17" fill="#3b3b3b"/>
    <path id="Path_14" data-name="Path 14" d="M513.292,74.82v4.3h4.151v2.669h-4.151v4.359a6.725,6.725,0,0,0,.16,1.9,1.289,1.289,0,0,0,.6.671,2.577,2.577,0,0,0,1.327.338,4.881,4.881,0,0,0,2.643-.84v2.683a10.789,10.789,0,0,1-2.03.719,8.805,8.805,0,0,1-1.966.207,6.986,6.986,0,0,1-2.123-.294,4.608,4.608,0,0,1-1.572-.84,3.042,3.042,0,0,1-.9-1.159,4.887,4.887,0,0,1-.251-1.779V81.784h-1.935v-2.4a5.223,5.223,0,0,0,1.768-.934,4.68,4.68,0,0,0,1.179-1.46,6.469,6.469,0,0,0,.613-2.166Z" fill="#fff"/>
  </g>
</svg>
