<svg xmlns="http://www.w3.org/2000/svg" width="34.999" height="33.999" viewBox="0 0 34.999 33.999">
  <g id="Group_10" data-name="Group 10" transform="translate(-653.094 -66.32)">
    <path id="Path_15" data-name="Path 15" d="M670.594,100.319a17.007,17.007,0,1,0-17.5-17,17.256,17.256,0,0,0,17.5,17" fill="#3b3b3b"/>
    <path id="Path_16" data-name="Path 16" d="M679.334,79.769q-.116,2.48-3.566,6.781-3.57,4.5-6.042,4.5-1.529,0-2.588-2.741-.709-2.517-1.413-5.03-.787-2.745-1.687-2.745a5.453,5.453,0,0,0-1.373.8l-.822-1.031q1.292-1.1,2.549-2.208a5.822,5.822,0,0,1,2.589-1.525q2.036-.192,2.51,2.7c.336,2.084.574,3.38.7,3.888.393,1.727.822,2.589,1.294,2.589q.546,0,1.646-1.674a6.5,6.5,0,0,0,1.177-2.554c.1-.966-.288-1.445-1.177-1.445a3.435,3.435,0,0,0-1.294.266q1.3-4.077,4.943-3.962Q679.49,76.454,679.334,79.769Z" fill="#fff"/>
  </g>
</svg>
